<svg width="282" height="63" viewBox="0 0 282 63" fill="none" xmlns="http://www.w3.org/2000/svg">
<path d="M1.2 33.28C1.02933 32.5973 0.944 31.9573 0.944 31.36C0.944 30.72 1.02933 30.1013 1.2 29.504C6.40533 24.2987 9.94667 20.8213 11.824 19.072C14.512 16.512 17.456 14.208 20.656 12.16L23.792 16.448C15.7707 24.8533 10.9493 29.7813 9.328 31.232L10.416 32.192L24.496 45.952L20.656 50.304C17.5413 48.2987 15.3653 46.72 14.128 45.568C6.14933 38.144 1.84 34.048 1.2 33.28ZM37.898 16.384L35.914 16.448C34.7193 16.448 33.482 16.192 32.202 15.68C31.434 12.352 31.05 9.74933 31.05 7.872C31.05 5.99467 31.1353 4.43733 31.306 3.2H60.682C61.706 4.56533 62.3887 6.25066 62.73 8.256L40.202 41.856H54.09L55.498 35.008L57.546 34.944C58.7407 34.944 59.978 35.2 61.258 35.712C61.9833 38.912 62.346 41.4293 62.346 43.264C62.346 45.0987 62.2607 46.6773 62.09 48H31.178C30.1113 46.6347 29.4287 44.992 29.13 43.072L51.594 9.536H39.434L37.898 16.384ZM79.671 15.232C80.4817 15.232 80.9937 15.2533 81.207 15.296C81.207 17.3867 80.8443 19.328 80.119 21.12C79.9483 30.336 79.8417 37.248 79.799 41.856L84.791 42.432C84.791 44.1813 84.3003 46.0373 83.319 48H67.383L66.807 44.48C69.4523 43.4987 71.3723 42.8587 72.567 42.56L71.863 21.824C69.3457 21.568 67.4897 21.248 66.295 20.864C66.295 19.7973 66.4443 18.2613 66.743 16.256C69.2603 15.5733 73.5697 15.232 79.671 15.232ZM79.671 3.136C80.055 5.056 80.247 6.528 80.247 7.552C80.247 8.53333 80.1617 9.64266 79.991 10.88C78.2843 11.264 76.8337 11.456 75.639 11.456C74.487 11.456 73.079 11.392 71.415 11.264C71.031 9.344 70.839 7.89333 70.839 6.912C70.839 5.888 70.9243 4.75733 71.095 3.52C72.8017 3.136 74.231 2.944 75.383 2.944C76.5777 2.944 78.007 3.008 79.671 3.136ZM106.463 48.768C103.988 48.768 101.385 47.9573 98.6545 46.336C98.5692 50.8587 98.5265 54.272 98.5265 56.576L103.519 57.152C103.519 59.0293 103.028 60.8853 102.047 62.72H86.1105L85.5345 59.2C88.2652 58.176 90.1852 57.536 91.2945 57.28L90.0785 21.76C88.0732 21.5893 86.3878 21.2693 85.0225 20.8C85.0225 19.2213 85.1718 17.6853 85.4705 16.192C87.2625 15.808 91.2305 15.4667 97.3745 15.168C97.7158 15.7227 98.0998 16.6613 98.5265 17.984C102.964 15.808 105.887 14.72 107.295 14.72C111.519 14.72 114.655 16.2133 116.703 19.2C118.751 22.144 119.775 26.112 119.775 31.104C119.775 36.096 118.623 40.2987 116.319 43.712C114.057 47.0827 110.772 48.768 106.463 48.768ZM99.0385 23.616L98.7825 39.808C99.7638 40.704 100.916 41.4933 102.239 42.176C103.604 42.816 104.756 43.136 105.695 43.136C109.449 43.136 111.327 39.5307 111.327 32.32C111.327 29.632 111.049 27.4773 110.495 25.856C109.983 24.2347 109.364 23.104 108.639 22.464C107.956 21.7813 107.145 21.44 106.207 21.44C104.329 21.44 101.94 22.1653 99.0385 23.616Z" fill="#F97316"/>
<path d="M148.576 36.352C149.6 36.1813 150.368 36.096 150.88 36.096C151.434 36.096 152.608 36.2453 154.4 36.544C154.57 36.8853 154.805 37.9733 155.104 39.808C155.445 41.6427 155.616 43.136 155.616 44.288C155.616 45.3973 155.488 46.6347 155.232 48H124.192L123.616 44.48C125.706 43.6267 127.498 43.008 128.992 42.624C128.992 42.496 128.8 31.2107 128.416 8.768L123.104 7.104L123.616 3.2H140.256C140.213 3.2 140.213 3.24266 140.256 3.328C140.341 3.41333 140.426 3.60533 140.512 3.904C140.64 4.16 140.768 4.48 140.896 4.864C141.152 5.54666 141.322 6.67733 141.408 8.256C139.232 8.59733 137.802 8.81067 137.12 8.896C136.949 23.616 136.842 34.6027 136.8 41.856H147.168L148.576 36.352ZM171.859 15.232C172.669 15.232 173.181 15.2533 173.395 15.296C173.395 17.3867 173.032 19.328 172.307 21.12C172.136 30.336 172.029 37.248 171.987 41.856L176.979 42.432C176.979 44.1813 176.488 46.0373 175.507 48H159.571L158.995 44.48C161.64 43.4987 163.56 42.8587 164.755 42.56L164.051 21.824C161.533 21.568 159.677 21.248 158.483 20.864C158.483 19.7973 158.632 18.2613 158.931 16.256C161.448 15.5733 165.757 15.232 171.859 15.232ZM171.859 3.136C172.243 5.056 172.435 6.528 172.435 7.552C172.435 8.53333 172.349 9.64266 172.179 10.88C170.472 11.264 169.021 11.456 167.827 11.456C166.675 11.456 165.267 11.392 163.603 11.264C163.219 9.344 163.027 7.89333 163.027 6.912C163.027 5.888 163.112 4.75733 163.283 3.52C164.989 3.136 166.419 2.944 167.571 2.944C168.765 2.944 170.195 3.008 171.859 3.136ZM199.546 14.72C203.813 14.72 206.906 15.7653 208.826 17.856C210.746 19.9467 211.706 22.8693 211.706 26.624C211.706 30.3787 211.493 35.456 211.066 41.856L216.122 42.432C216.122 44.1813 215.631 46.0373 214.65 48H198.714L198.138 44.48C200.143 43.6693 201.999 43.0293 203.706 42.56C203.578 37.6533 203.45 33.536 203.322 30.208C203.194 26.8373 202.874 24.5547 202.362 23.36C201.85 22.1653 200.719 21.568 198.97 21.568C196.325 21.568 193.957 22.0373 191.866 22.976C191.823 24.8107 191.695 27.8187 191.482 32C191.311 36.1387 191.205 39.424 191.162 41.856L196.154 42.432C196.154 44.1813 195.663 46.0373 194.682 48H178.746L178.17 44.48C180.303 43.6693 182.223 43.0293 183.93 42.56C183.887 40 183.738 36.4587 183.482 31.936C183.269 27.4133 183.141 24.064 183.098 21.888C181.519 21.7173 179.834 21.3973 178.042 20.928L178.362 16.32C181.349 15.5093 184.719 15.104 188.474 15.104C188.943 15.4027 189.583 16.32 190.394 17.856C191.845 17.1307 193.615 16.4267 195.706 15.744C197.797 15.0613 199.077 14.72 199.546 14.72ZM230.472 36.928L230.408 41.856L235.4 42.432C235.4 44.1813 234.909 46.0373 233.928 48H217.992L217.416 44.48C220.061 43.4987 221.981 42.8587 223.176 42.56L221.96 7.04C219.954 6.82666 218.269 6.50666 216.904 6.08C216.904 4.50133 217.053 2.96533 217.352 1.472C219.869 0.789331 224.178 0.447998 230.28 0.447998C231.09 0.447998 231.602 0.469331 231.816 0.511997C231.816 2.73066 231.538 4.672 230.984 6.336C230.728 16.576 230.6 24.1707 230.6 29.12L238.216 21.568L234.248 21.056C234.248 19.3067 234.738 17.4507 235.72 15.488H251.656L252.232 19.008C249.586 19.9893 247.666 20.6293 246.472 20.928L239.432 27.968L248.392 41.856L253.384 42.432C253.384 44.1813 252.893 46.0373 251.912 48H243.72L234.248 33.152L230.472 36.928ZM281.276 29.504C281.447 30.1013 281.532 30.72 281.532 31.36C281.532 31.9573 281.447 32.5973 281.276 33.28C281.063 33.536 279.164 35.3707 275.58 38.784C271.996 42.1547 269.799 44.2027 268.988 44.928C267.409 46.464 265.02 48.256 261.82 50.304L257.98 45.952C266.3 37.7173 271.356 32.8107 273.148 31.232L272.06 30.272L258.684 16.448L261.82 12.16C264.935 14.1653 267.665 16.256 270.012 18.432C272.359 20.608 276.113 24.2987 281.276 29.504Z" fill="black"/>
</svg>
